<svg xmlns="http://www.w3.org/2000/svg" width="620" height="380" viewBox="0 0 620 380" fill="none">
  <rect width="620" height="380" fill="white"/>
  <path d="M145 87C110.8 87 84 111.8 84 145.2C84 178.6 110.8 203.4 145 203.4C173.2 203.4 195.6 187.2 202.4 163.2H149.2V132.8H236.4V145.2C236.4 199.8 198.8 238.6 145 238.6C90.8 238.6 52.8 199.4 52.8 145.2C52.8 91.2 90.8 52 145 52C185.6 52 220 72 234.8 104.4H200.8C189.2 93.2 170.8 87 145 87Z" fill="#2E68B8"/>
  <path d="M253.2 233V57.8H339.8C381.6 57.8 408.4 82.2 408.4 118.6C408.4 144.2 396 164.2 374.2 173.6L411.6 233H376.2L342.4 179.2H285.8V233H253.2ZM285.8 149H334.8C357.6 149 372.2 136.2 372.2 118.6C372.2 101.2 357.6 88.2 334.8 88.2H285.8V149Z" fill="#2E68B8"/>
  <path d="M492.4 238.6C438.8 238.6 399.2 199.2 399.2 145.2C399.2 91.4 438.8 52 492.4 52C546 52 585.4 91.4 585.4 145.2C585.4 199.2 546 238.6 492.4 238.6ZM492.4 203.4C524.6 203.4 548.2 179 548.2 145.2C548.2 111.6 524.6 87 492.4 87C460 87 436.6 111.6 436.6 145.2C436.6 179 460 203.4 492.4 203.4Z" fill="#2E68B8"/>
  <path d="M112 276C174 247 236 247 298 276C360 305 422 305 484 276C515 262 546 257 577 257" stroke="#7DCCD8" stroke-width="10" stroke-linecap="round"/>
  <path d="M133 308C185 284 237 284 289 308C341 332 393 332 445 308C471 296 498 290 525 290" stroke="#7DCCD8" stroke-width="10" stroke-linecap="round"/>
  <path d="M154 338C198 320 242 320 286 338C330 356 374 356 418 338C440 329 463 324 486 324" stroke="#7DCCD8" stroke-width="10" stroke-linecap="round"/>
</svg>
