<svg width="313" height="44" viewBox="0 0 313 44" fill="none" xmlns="http://www.w3.org/2000/svg">
<g clip-path="url(#clip0_1795_6522)">
<path d="M89.2177 21.5391H77.2144V34.5324H70.3569V2.81641H77.2144V15.449H89.2177V2.81641H96.0752V34.5324H89.2177V21.5391Z" fill="#00A55B"/>
<path d="M115.34 30.5352H115.115C114.302 32.9432 112.363 35.0792 108.482 35.0792C103.655 35.0792 101.082 31.6719 101.082 25.6734V10.6787H107.76V25.0836C107.76 27.9927 108.707 29.6276 111.143 29.6276C113.219 29.6276 115.34 28.4451 115.34 26.1745V10.6816H122.018V34.5352H115.34V30.5352Z" fill="#00A55B"/>
<path d="M133.657 34.5324C129.1 34.5324 127.025 32.2161 127.025 27.9899V2.81641H133.703V29.307H136.68V34.5324H133.657Z" fill="#00A55B"/>
<path d="M139.48 4.81775V3.81848C139.48 1.91157 140.654 0.5 143.361 0.5C146.067 0.5 147.242 1.90871 147.242 3.81848V4.81775C147.242 6.72466 146.067 8.13337 143.361 8.13337C140.654 8.13337 139.48 6.72466 139.48 4.81775ZM140.02 10.6788H146.698V34.5324H140.02V10.6788Z" fill="#00A55B"/>
<path d="M150.872 22.5841C150.872 14.9049 155.023 10.1348 161.971 10.1348C168.92 10.1348 173.071 14.9049 173.071 22.5841C173.071 30.2633 168.92 35.0792 161.971 35.0792C155.023 35.0792 150.872 30.2633 150.872 22.5841ZM166.122 25.0379V20.1761C166.122 17.1783 164.587 15.4518 161.971 15.4518C159.356 15.4518 157.82 17.1783 157.82 20.1761V25.0379C157.82 28.0357 159.356 29.7622 161.971 29.7622C164.587 29.7622 166.122 28.0357 166.122 25.0379Z" fill="#00A55B"/>
<path d="M186.786 34.5323C182.183 34.5323 179.746 32.1244 179.746 27.5804V15.9042H176.408V10.6788H178.077C179.883 10.6788 180.423 9.77111 180.423 8.13334V2.73901H186.425V10.6788H191.116V15.9042H186.425V29.3069H190.754V34.5323H186.783H186.786Z" fill="#00A55B"/>
<path d="M191.281 5.63943C191.281 3.82414 192.6 2.49561 194.28 2.49561C195.96 2.49561 197.279 3.82414 197.279 5.63943C197.279 7.45472 195.96 8.78326 194.28 8.78326C192.6 8.78326 191.281 7.45472 191.281 5.63943ZM196.768 5.80836V5.47337C196.768 4.11619 195.738 2.9709 194.283 2.9709C192.827 2.9709 191.798 4.11619 191.798 5.47337V5.80836C191.798 7.16553 192.827 8.31083 194.283 8.31083C195.738 8.31083 196.768 7.16553 196.768 5.80836ZM193.677 7.28865H193.208V4.06752H194.51C195.116 4.06752 195.48 4.4197 195.48 5.02956C195.48 5.54781 195.207 5.85418 194.843 5.9458L195.599 7.28865H195.085L194.371 5.99161H193.674V7.28865H193.677ZM194.496 5.6108C194.829 5.6108 194.982 5.47337 194.982 5.167V4.92362C194.982 4.61726 194.831 4.46551 194.496 4.46551H193.677V5.6108H194.496Z" fill="#00A55B"/>
<path d="M54.8935 9.33594C59.1296 15.363 58.7202 23.758 53.5004 29.3471C48.2834 34.9361 39.9902 35.8666 33.7554 31.9784L54.8935 9.33594Z" fill="#5FD246"/>
<path d="M50.3105 4.99822L39.7542 16.3051C37.3746 18.8534 33.3943 18.9765 30.8612 16.58C28.3309 14.1835 28.2086 10.1749 30.5882 7.6238C35.7996 2.0405 44.0814 1.11281 50.3105 4.99535" fill="#5FD246"/>
<path d="M2.87999 27.6522C-1.35616 21.6251 -0.943914 13.233 4.27308 7.64392C9.49008 2.0549 17.7833 1.12721 24.0181 5.01261L2.87999 27.6522Z" fill="#00A55B"/>
<path d="M7.46301 31.9928L18.0193 20.6859C20.3989 18.1376 24.3792 18.0145 26.9123 20.411C29.4426 22.8076 29.5649 26.8161 27.1853 29.3672C21.9739 34.9505 13.6921 35.8782 7.46301 31.9957" fill="#00A55B"/>
<path d="M219.748 29.5102H219.566C218.881 32.5481 215.682 34.8472 210.838 34.8472C203.116 34.8472 197.632 29.0492 197.632 18.2806C197.632 7.51198 203.113 1.62231 211.384 1.62231C217.05 1.62231 220.979 4.42828 223.125 8.75462L219.469 10.9164C218.099 7.69523 215.31 5.62511 211.381 5.62511C205.99 5.62511 202.38 9.44466 202.38 15.6092V20.8088C202.38 26.9762 205.945 30.8416 211.654 30.8416C215.904 30.8416 219.421 28.6798 219.421 24.2619V21.3643H212.612V17.4989H223.714V34.2946H219.739V29.5102H219.748Z" fill="#5FD246"/>
<path d="M228.931 34.2947V10.4612H233.181V15.0166H233.409C234.185 12.6687 236.286 10.4612 240.079 10.4612H241.495V14.7417H239.394C235.464 14.7417 233.179 16.305 233.179 18.6529V34.2976H228.928L228.931 34.2947Z" fill="#5FD246"/>
<path d="M242.319 22.3781C242.319 14.7848 246.66 9.90869 253.103 9.90869C259.545 9.90869 263.886 14.7876 263.886 22.3781C263.886 29.9685 259.545 34.8474 253.103 34.8474C246.66 34.8474 242.319 29.9685 242.319 22.3781ZM259.363 24.1733V20.5828C259.363 15.9358 256.804 13.5879 253.103 13.5879C249.401 13.5879 246.842 15.9358 246.842 20.5828V24.1733C246.842 28.8203 249.401 31.1682 253.103 31.1682C256.804 31.1682 259.363 28.8203 259.363 24.1733Z" fill="#5FD246"/>
<path d="M282.343 30.3835H282.116C281.249 32.6855 279.421 34.8473 275.492 34.8473C270.647 34.8473 267.633 31.4887 267.633 25.6906V10.4583H271.884V25.0464C271.884 29.0492 273.575 31.1193 276.91 31.1193C279.605 31.1193 282.346 29.7392 282.346 26.7472V10.4583H286.596V34.2946H282.346V30.3835H282.343Z" fill="#5FD246"/>
<path d="M292.257 10.4613H296.507V14.3725H296.689C297.787 11.4262 300.255 9.90869 303.499 9.90869C309.438 9.90869 313.003 14.6473 313.003 22.3781C313.003 30.1088 309.438 34.8474 303.499 34.8474C300.255 34.8474 297.787 33.3299 296.689 30.3837H296.507V43.4973H292.257V10.4613ZM308.477 24.4052V20.3566C308.477 16.3538 306.054 13.6395 302.262 13.6395C299.063 13.6395 296.505 15.4805 296.505 18.0116V26.7531C296.505 29.2842 299.063 31.1252 302.262 31.1252C306.054 31.1252 308.477 28.4109 308.477 24.4081V24.4052Z" fill="#5FD246"/>
</g>
<defs>
<clipPath id="clip0_1795_6522">
<rect width="313" height="43" fill="white" transform="translate(0 0.5)"/>
</clipPath>
</defs>
</svg>
