<svg xmlns="http://www.w3.org/2000/svg" width="1280" height="260" viewBox="0 0 1280 260" fill="none">
  <rect width="1280" height="260" fill="white"/>
  <path d="M46 43C57 104 93 151 152 184L133 221C74 193 35 144 20 78L46 43Z" fill="#D50023"/>
  <path d="M158 220C102 196 65 149 49 88L80 55C93 113 125 154 178 181L158 220Z" fill="#D50023"/>
  <path d="M186 196V42H302C359 42 396 74 396 126C396 164 374 192 336 205L392 196H186ZM259 149H293C317 149 332 139 332 118C332 98 317 88 293 88H259V149Z" fill="#1A1721"/>
  <path d="M470 202C399 202 347 152 347 99C347 46 399 -4 470 -4C541 -4 593 46 593 99C593 152 541 202 470 202ZM470 147C504 147 529 125 529 99C529 73 504 51 470 51C436 51 411 73 411 99C411 125 436 147 470 147Z" fill="#1A1721"/>
  <path d="M650 196V91H580V42H795V91H724V196H650Z" fill="#1A1721"/>
  <path d="M809 196V42H882V99H956V42H1029V196H956V142H882V196H809Z" fill="#1A1721"/>
  <path d="M1061 196V42H1257V91H1133V102H1244V137H1133V148H1263V196H1061Z" fill="#1A1721"/>
  <path d="M606 234C617 221 633 214 651 214C676 214 694 228 694 250C694 272 676 286 651 286C630 286 614 277 605 262H641C644 267 649 270 656 270C666 270 673 262 673 250C673 238 666 230 656 230C649 230 644 233 641 238H606V234Z" fill="#5A5560"/>
  <path d="M709 284V216H742C760 216 771 225 771 240C771 249 766 257 757 261L772 284H746L735 266H729V284H709ZM729 250H739C746 250 750 246 750 240C750 234 746 230 739 230H729V250Z" fill="#5A5560"/>
  <path d="M789 284V216H850V231H809V242H846V256H809V269H852V284H789Z" fill="#5A5560"/>
  <path d="M868 284V216H899L923 253L947 216H978V284H959V245L941 273H905L887 245V284H868Z" fill="#5A5560"/>
  <path d="M1001 284V216H1021V284H1001Z" fill="#5A5560"/>
  <path d="M1040 284V216H1066L1100 252V216H1120V284H1094L1060 248V284H1040Z" fill="#5A5560"/>
  <path d="M1140 284V216H1201V231H1160V242H1197V256H1160V269H1203V284H1140Z" fill="#5A5560"/>
</svg>
