<svg xmlns="http://www.w3.org/2000/svg" viewBox="0 0 289.73 43.26"><defs><style>.d{fill:#f3bd1a;}.e{fill:#2d2d2b;}</style></defs><g id="a"></g><g id="b"><g id="c"><g><path class="e" d="M53.1,20.8c-1.07-4.56-5.66-7-12.75-7H15.74c-1.53,0-2.29-.55-2.29-1.66s.76-1.66,2.29-1.66H53.1V0H19.77C5.95,0,0,3.35,0,11.92c0,9.7,5.02,12.36,19.8,12.36h14.53c6.94,0,6.85,5.86-.03,5.86H5.19c-2.87,0-5.19,2.35-5.19,5.24s2.33,5.24,5.19,5.24H40.35c.13,0,.25,0,.38,0h0c.12,0,.25,0,.37,0h0c.12,0,.24,0,.36-.01h0c.12,0,.24,0,.35-.02h.01c.12,0,.23-.01,.35-.02h.01c.11,0,.23-.02,.34-.02h.15c.07-.02,.14-.03,.21-.03h0c.11-.01,.22-.02,.32-.03h0l.15-.02c.06,0,.13-.02,.19-.02h0c.1-.01,.21-.03,.31-.04h0l.17-.03c.05,0,.11-.02,.16-.02l.12-.02,.2-.03,.12-.02c.07-.01,.13-.02,.2-.04l.13-.02c.06-.01,.12-.02,.19-.04,.06-.01,.11-.02,.16-.04l.13-.03c.06-.01,.11-.03,.17-.04,.05-.01,.1-.02,.14-.03l.13-.03c.06-.01,.11-.03,.17-.04,.05-.01,.11-.03,.16-.04l.13-.04,.17-.05,.11-.03c.05-.02,.1-.03,.15-.05l.13-.04s.1-.03,.15-.05l.12-.04,.14-.05s.09-.03,.14-.05l.13-.05,.13-.05s.09-.04,.14-.06l.12-.05s.09-.04,.13-.06c.04-.02,.08-.04,.12-.05l.13-.06,.12-.06,.12-.06,.11-.06s.09-.05,.13-.07c.03-.02,.07-.04,.1-.05,.04-.02,.08-.05,.13-.07l.11-.06,.11-.07s.08-.05,.12-.07c.04-.02,.07-.04,.11-.07,.04-.02,.07-.04,.11-.07,.04-.02,.08-.05,.11-.08l.1-.07s.07-.05,.1-.07c.04-.03,.07-.05,.11-.08l.09-.07,.11-.08,.09-.07s.07-.05,.1-.08c.03-.03,.06-.05,.09-.08,.03-.03,.06-.05,.09-.08,.03-.03,.07-.06,.1-.09,.03-.03,.06-.05,.08-.08,.03-.03,.06-.05,.09-.08,.03-.03,.06-.06,.09-.09l.08-.08s.06-.06,.09-.09c.03-.03,.05-.06,.08-.09l.08-.09,.08-.09s.05-.06,.08-.09c.03-.03,.05-.06,.08-.09,.02-.03,.05-.06,.07-.09,.03-.03,.05-.07,.08-.1l.07-.09,.08-.1,.06-.09s.05-.07,.07-.11c.02-.03,.04-.06,.06-.09,.02-.03,.04-.07,.06-.1,.02-.03,.04-.07,.06-.1,.02-.04,.04-.07,.06-.11l.06-.1s.04-.07,.06-.11l.06-.11,.05-.11s.03-.07,.05-.1c.02-.04,.04-.08,.06-.12l.04-.1,.05-.12,.04-.11s.03-.08,.05-.12l.04-.11,.04-.12s.03-.08,.04-.11l.04-.12s.03-.08,.04-.12l.03-.11s.03-.09,.04-.13l.03-.12,.03-.11v-12.82Z"></path><path class="d" d="M89.64,0H55.95V10.48h37.72c1.53,0,2.29,.55,2.29,1.66s-.76,1.66-2.29,1.66h-24.61c-8.14,0-12.99,3.21-12.99,9.17v11.33h0c0,3.18,2.35,5.87,5.46,6.27h0c.05,0,.1,.01,.15,.02h0c.05,0,.1,.01,.16,.01h0c.05,0,.1,0,.16,.01h0c.05,0,.11,0,.16,0,.05,0,.11,0,.16,0,3.46,0,6.26-2.83,6.26-6.31,0-10.05,.68-10.03,6.49-10.03h14.53c14.78,0,19.8-2.66,19.8-12.36C109.41,3.35,103.46,0,89.64,0"></path><path class="e" d="M282.76,40.29h1.31l.64-5.48c.07-.61,.26-1.09,.57-1.45,.31-.36,.7-.53,1.16-.53,.64,0,1.13,.2,1.47,.59,.34,.39,.51,.96,.51,1.71v4.1h-2.14v1.06h3.47v-5.02c0-1.17-.31-2.05-.9-2.65s-1.46-.9-2.6-.9c-.58,0-1.21,.06-1.89,.18-.69,.12-1.31,.27-1.86,.46l.31,1c.27-.09,.56-.18,.88-.26,.32-.08,.59-.14,.8-.18v.02c-.06,.05-.11,.09-.13,.1-.23,.19-.44,.45-.61,.8-.17,.35-.29,.71-.33,1.1l-.64,5.35Zm-8.88,2.97h1.29v-6.21c0-.39,.01-.71,.04-.97s.07-.5,.13-.71h-1.09c-.12,.25-.21,.5-.27,.75-.06,.25-.1,.59-.1,1.01v6.13Zm2.68-2.97c.74-.01,1.39-.16,1.94-.45,.55-.28,.98-.68,1.29-1.2,.3-.52,.45-1.13,.45-1.83v-4.95h-6.52v1.07h5.19v3.91c0,.49-.1,.91-.29,1.26-.19,.36-.47,.63-.82,.83-.35,.2-.76,.3-1.24,.31v1.04Zm-5.5-1.12v-4.12c0-1.05-.28-1.84-.84-2.37-.56-.53-1.39-.8-2.49-.8h-2.11v1.07h2.04c.73,0,1.26,.16,1.59,.49,.33,.33,.49,.85,.49,1.58v4.21h-4.57v1.07h6.92v-1.01l-1.02-.11Zm-8.95,1.12h1.33v-8.42h-2.31v1.07h.98v7.35Zm-2.17-8.42h-1.49l-1.86,3.39-2.24-3.39h-1.49l5.03,7.35h-4.52v1.07h6.23v-.67l-2.22-3.21,2.58-4.54Zm-11.93,0h-3.92v1.07h1.58c-.2,.26-.36,.6-.47,1.03-.11,.43-.17,.86-.17,1.3v2.66c0,.46-.1,.8-.28,1.01-.19,.21-.49,.32-.9,.32-.18,0-.34,0-.49-.03v1.07c.34,.04,.62,.06,.82,.06,.7,0,1.23-.2,1.6-.6,.37-.4,.55-.99,.55-1.76v-2.84c0-.42,.05-.84,.14-1.24,.09-.4,.22-.73,.38-.99h1.19c.7,0,1.2,.16,1.51,.49,.31,.33,.47,.86,.47,1.59v5.27h1.33v-5.19c0-1.09-.28-1.9-.83-2.43-.55-.53-1.38-.8-2.5-.8m-9.05,0h-1.49l-2.03,3.6-2.61-3.6h-1.49l1.82,2.52c-.52,.24-.9,.59-1.15,1.05-.25,.46-.37,1.06-.37,1.79v3.05h1.29v-3.53c0-.78,.26-1.32,.76-1.64l3.75,5.17h1.48l-2.66-3.68,2.7-4.74Zm-11.18,4.7h1.33v-4.7h-2.87v1.07h1.54v3.63Zm-5.45,3.87c.71,0,1.26-.2,1.64-.6,.38-.4,.57-.99,.57-1.76v-6.2h-2.98v1.07h1.65v5.02c0,.47-.1,.81-.29,1.04-.2,.22-.49,.34-.88,.34s-.73-.03-1.04-.09l-.04,1.04c.47,.1,.93,.16,1.36,.16m-4.21-.14h1.32v-5.77c0-.55-.11-1.03-.33-1.42-.22-.39-.54-.7-.96-.91-.42-.21-.92-.32-1.49-.32h-2.87v1.07h2.83c.47,0,.83,.13,1.1,.4,.27,.26,.4,.62,.4,1.08v5.87Zm-7.39,0h1.33v-8.42h-2.31v1.07h.98v7.35Zm-8.38-7.35h4.07v6.28h-4.07v-6.28Zm-1.32,7.35h6.72v-8.42h-6.72v8.42Zm-9.32-8.42h-3.92v1.07h1.58c-.2,.26-.36,.6-.47,1.03-.11,.43-.17,.86-.17,1.3v2.66c0,.46-.09,.8-.28,1.01-.19,.21-.49,.32-.9,.32-.18,0-.34,0-.49-.03v1.07c.34,.04,.62,.06,.82,.06,.7,0,1.23-.2,1.6-.6,.37-.4,.55-.99,.55-1.76v-2.84c0-.42,.05-.84,.14-1.24,.09-.4,.22-.73,.38-.99h1.19c.7,0,1.2,.16,1.51,.49,.31,.33,.47,.86,.47,1.59v5.27h1.33v-5.19c0-1.09-.27-1.9-.83-2.43-.55-.53-1.38-.8-2.5-.8m-7.35,0v5.1c0,.65-.16,1.18-.48,1.59-.32,.41-.77,.68-1.34,.81-.1-.17-.18-.35-.25-.55-.07-.2-.13-.45-.19-.74l-1.36-6.21h-1.33l1.39,6.14c.12,.54,.35,1.01,.71,1.42-.66-.04-1.41-.22-2.24-.54l-.32,.99c1.04,.39,2.04,.59,2.99,.59,.74,0,1.4-.14,1.96-.41,.57-.27,1-.68,1.32-1.21,.31-.53,.47-1.18,.47-1.93v-5.05h-1.32Zm-12.87,6.1l1.1,.04c.25-.25,.43-.56,.55-.92,.12-.36,.18-.78,.18-1.27v-3.95h-1.29v4.19c0,.43-.04,.81-.13,1.14-.09,.33-.22,.58-.4,.77m-2.02-6.1h-1.29v7.65c.66,.32,1.36,.56,2.09,.73,.73,.16,1.45,.25,2.14,.25,.9,0,1.71-.14,2.43-.41,.72-.27,1.3-.68,1.73-1.23,.43-.55,.64-1.21,.64-2v-4.98h-1.29v4.86c0,.59-.15,1.09-.46,1.49-.31,.4-.73,.7-1.27,.9-.54,.2-1.15,.3-1.84,.3-.46,0-.94-.05-1.44-.16-.5-.11-.99-.26-1.44-.46v-6.93Zm-5.06,4.7h1.33v-4.7h-2.87v1.07h1.54v3.63Zm-4.56,3.72h1.33v-8.42h-2.31v1.07h.98v7.35Zm-6.1-8.42h-3.92v1.07h1.58c-.2,.26-.36,.6-.47,1.03-.11,.43-.17,.86-.17,1.3v2.66c0,.46-.1,.8-.28,1.01-.19,.21-.49,.32-.9,.32-.18,0-.34,0-.49-.03v1.07c.34,.04,.62,.06,.82,.06,.7,0,1.23-.2,1.6-.6,.37-.4,.55-.99,.55-1.76v-2.84c0-.42,.05-.84,.14-1.24,.09-.4,.22-.73,.38-.99h1.19c.7,0,1.2,.16,1.51,.49s.47,.86,.47,1.59v5.27h1.33v-5.19c0-1.09-.27-1.9-.82-2.43-.55-.53-1.38-.8-2.5-.8m-9.74,7.3v-4.12c0-1.05-.28-1.84-.84-2.37-.56-.53-1.39-.8-2.49-.8h-2.11v1.07h2.04c.73,0,1.26,.16,1.59,.49,.33,.33,.49,.85,.49,1.58v4.21h-4.57v1.07h6.92v-1.01l-1.02-.11Zm-9.84,1.26c.71,0,1.26-.2,1.64-.6,.38-.4,.57-.99,.57-1.76v-6.2h-2.98v1.07h1.65v5.02c0,.47-.1,.81-.29,1.04-.19,.22-.49,.34-.88,.34s-.73-.03-1.04-.09l-.04,1.04c.47,.1,.93,.16,1.37,.16m-4.27-3.87h1.33v-4.7h-2.87v1.07h1.54v3.63Zm-4.42,0h1.33v-4.7h-2.87v1.07h1.54v3.63Zm-9.47,3.72h1.29v-2.96c0-.38,.01-.7,.04-.96,.03-.27,.07-.51,.13-.73h-1.09c-.12,.25-.21,.5-.27,.75-.06,.25-.1,.59-.1,1.02v2.87Zm5.12,0h1.33v-5.24c0-1.05-.28-1.84-.85-2.37-.56-.53-1.4-.8-2.5-.8h-3.12v1.07h3.05c.73,0,1.26,.16,1.59,.49,.33,.33,.49,.85,.49,1.58v5.28Z"></path><path class="e" d="M284.71,19.25c-.69,.55-1.71,.83-3.08,.83-1.58,0-2.79-.35-3.64-1.05-.85-.7-1.27-1.69-1.27-2.98h-3.92c0,1.42,.38,2.65,1.14,3.72,.76,1.06,1.82,1.9,3.19,2.5,1.37,.6,2.87,.91,4.5,.91,2.47,0,4.42-.55,5.86-1.67,1.44-1.11,2.16-2.61,2.16-4.49,0-1.16-.25-2.17-.74-3.03-.5-.86-1.28-1.63-2.34-2.29-1.06-.67-2.47-1.26-4.23-1.78-1.76-.52-3.02-1.05-3.78-1.6-.77-.55-1.15-1.24-1.15-2.06,0-.98,.35-1.74,1.06-2.28,.71-.55,1.7-.82,2.98-.82,1.37,0,2.43,.33,3.17,.99,.74,.66,1.11,1.58,1.11,2.74h3.9c0-1.3-.35-2.49-1.05-3.56-.7-1.07-1.67-1.89-2.9-2.47C284.47,.29,283.07,0,281.5,0c-2.37,0-4.29,.59-5.77,1.77-1.48,1.18-2.22,2.68-2.22,4.49,0,2.08,1.03,3.76,3.08,5.05,1.07,.67,2.52,1.28,4.34,1.83,1.82,.55,3.08,1.09,3.77,1.63,.7,.54,1.05,1.3,1.05,2.29,0,.91-.34,1.64-1.03,2.19m-15.52-9.55h-9.27V3.47h10.72V.31h-14.64V22.87h14.75v-3.16h-10.83v-6.91h9.27v-3.1ZM251.19,.31h-3.9V22.87h3.9V.31Zm-20.02,3.16h4.14c1.36,.02,2.39,.36,3.08,1.02s1.03,1.6,1.03,2.8-.37,2.07-1.11,2.73c-.74,.67-1.78,1-3.1,1h-4.03V3.47Zm8.89,19.4h4.2v-.2l-5.07-9.39c1.3-.55,2.32-1.33,3.04-2.35,.73-1.02,1.09-2.28,1.09-3.79,0-2.21-.71-3.9-2.12-5.07s-3.42-1.75-6.03-1.75h-7.93V22.87h3.92V14.19h4.37l4.52,8.68ZM224.29,.31h-17.9V3.47h6.97V22.87h3.89V3.47h7.03V.31Zm-24.69,18.94c-.69,.55-1.71,.83-3.08,.83-1.58,0-2.79-.35-3.64-1.05-.85-.7-1.27-1.69-1.27-2.98h-3.92c0,1.42,.38,2.65,1.14,3.72,.76,1.06,1.82,1.9,3.19,2.5,1.37,.6,2.87,.91,4.5,.91,2.47,0,4.42-.55,5.86-1.67,1.44-1.11,2.16-2.61,2.16-4.49,0-1.16-.25-2.17-.74-3.03-.5-.86-1.28-1.63-2.34-2.29-1.06-.67-2.47-1.26-4.23-1.78-1.76-.52-3.02-1.05-3.78-1.6-.76-.55-1.15-1.24-1.15-2.06,0-.98,.35-1.74,1.06-2.28,.71-.55,1.7-.82,2.98-.82,1.37,0,2.43,.33,3.17,.99,.74,.66,1.11,1.58,1.11,2.74h3.9c0-1.3-.35-2.49-1.05-3.56-.7-1.07-1.67-1.89-2.9-2.47C199.36,.29,197.96,0,196.39,0c-2.37,0-4.29,.59-5.77,1.77-1.48,1.18-2.22,2.68-2.22,4.49,0,2.08,1.03,3.76,3.08,5.05,1.07,.67,2.52,1.28,4.34,1.83,1.82,.55,3.08,1.09,3.77,1.63,.7,.54,1.05,1.3,1.05,2.29,0,.91-.34,1.64-1.03,2.19M180.75,.31V15.25c0,3.18-1.51,4.77-4.53,4.77-1.49,0-2.61-.4-3.38-1.19-.76-.79-1.15-1.94-1.15-3.45V.31h-3.9V15.37c0,2.45,.76,4.36,2.28,5.74,1.52,1.38,3.57,2.07,6.15,2.07s4.59-.7,6.13-2.1,2.3-3.3,2.3-5.69V.31h-3.9Zm-26.67,3.16c2.02,0,3.57,.64,4.63,1.93s1.6,3.15,1.6,5.6v1.25c-.02,2.4-.58,4.24-1.68,5.53-1.1,1.28-2.68,1.93-4.73,1.93h-2.56V3.47h2.74Zm-.17,19.4c2.04,0,3.84-.44,5.42-1.32,1.57-.88,2.79-2.13,3.64-3.75,.85-1.62,1.28-3.5,1.28-5.64v-1.13c0-2.11-.42-3.98-1.27-5.61-.85-1.63-2.04-2.89-3.59-3.78-1.54-.89-3.31-1.33-5.31-1.33h-6.66V22.87h6.49ZM142.79,.31h-3.89V16.38L128.82,.31h-3.92V22.87h3.92V6.86l10.06,16.01h3.92V.31Zm-22.72,0h-3.9V22.87h3.9V.31Z"></path></g></g></g></svg>